<?xml version="1.0" standalone="no"?>
<!DOCTYPE svg PUBLIC "-//W3C//DTD SVG 20010904//EN"
 "http://www.w3.org/TR/2001/REC-SVG-20010904/DTD/svg10.dtd">
<svg version="1.0" xmlns="http://www.w3.org/2000/svg"
 width="72.000000pt" height="72.000000pt" viewBox="0 0 72.000000 72.000000"
 preserveAspectRatio="xMidYMid meet">
<metadata>
Created by potrace 1.11, written by Peter Selinger 2001-2013
</metadata>
<g transform="translate(0.000000,72.000000) scale(0.100000,-0.100000)"
fill="#000000" stroke="none">
<path d="M226 691 c-3 -5 15 -27 40 -50 41 -36 45 -42 31 -56 -12 -12 -41 -15
-130 -15 -108 0 -116 -1 -129 -22 -19 -32 -19 -388 1 -412 11 -13 35 -16 122
-16 l109 0 -6 -47 c-5 -44 -4 -46 13 -32 10 8 20 16 23 20 3 3 21 17 41 32 35
26 39 27 180 27 100 0 149 4 157 12 17 17 17 409 0 426 -8 8 -51 12 -126 12
-104 0 -116 2 -133 21 -18 21 -18 22 6 54 31 39 33 71 4 35 -12 -14 -27 -33
-34 -43 -25 -36 -59 -30 -113 18 -28 25 -53 41 -56 36z"/>
</g>
</svg>
